HIERARCHY
ROOT hip
{
	OFFSET 0.00 0.00 0.00
	CHANNELS 6  Xposition Yposition Zposition Xrotation Zrotation Yrotation
	JOINT abdomen
	{
		OFFSET 0.000000 3.402643 0.000000
			CHANNELS 3 Xrotation Zrotation Yrotation
		JOINT chest
		{
			OFFSET 0.000000 8.438565 -0.680529
				CHANNELS 3 Xrotation Zrotation Yrotation
			JOINT neck
			{
				OFFSET 0.000000 10.207942 -0.272212
					CHANNELS 3 Xrotation Zrotation Yrotation
				JOINT head
				{
					OFFSET 0.000000 3.130431 0.000000
						CHANNELS 3 Xrotation Zrotation Yrotation
					End Site
					{
						OFFSET 76813168775672648000000000000000.000000 267996529858680190000.000000 0.000000
					}
				}
			}
			JOINT lCollar
			{
				OFFSET 3.470700 6.669187 -0.816635
					CHANNELS 3 Yrotation Zrotation Xrotation
				JOINT lShldr
				{
					OFFSET 3.198488 0.000000 0.000000
						CHANNELS 3 Zrotation Yrotation Xrotation
					JOINT lForeArm
					{
						OFFSET 10.139888 0.000000 0.000000
							CHANNELS 3 Yrotation Zrotation Xrotation
						JOINT lHand
						{
							OFFSET 8.370511 0.000000 0.000000
								CHANNELS 3 Zrotation Yrotation Xrotation
							End Site
							{
								OFFSET 0.000000 0.000000 0.000000
							}
						}
					}
				}
			}
			JOINT rCollar
			{
				OFFSET -3.470700 6.669187 -0.816635
					CHANNELS 3 Yrotation Zrotation Xrotation
				JOINT rShldr
				{
					OFFSET -3.198488 0.000000 0.000000
						CHANNELS 3 Zrotation Yrotation Xrotation
					JOINT rForeArm
					{
						OFFSET -10.139888 0.000000 0.000000
							CHANNELS 3 Yrotation Zrotation Xrotation
						JOINT rHand
						{
							OFFSET -8.370511 0.000000 0.000000
								CHANNELS 3 Zrotation Yrotation Xrotation
							End Site
							{
								OFFSET 0.000000 3283496066980031900000000000000000.000000 3542112263677081800000000000000000.000000
							}
						}
					}
				}
			}
		}
	}
	JOINT lThigh
	{
		OFFSET 5.308129 -1.633274 1.361059
			CHANNELS 3 Xrotation Zrotation Yrotation
		JOINT lShin
		{
			OFFSET -2.041588 -20.007561 0.000000
				CHANNELS 3 Xrotation Zrotation Yrotation
			JOINT lFoot
			{
				OFFSET 0.000000 -19.190928 -1.224953
					CHANNELS 3 Xrotation Yrotation Zrotation
				End Site
				{
					OFFSET 0.000000 0.000000 -1.#QNAN0
				}
			}
		}
	}
	JOINT rThigh
	{
		OFFSET -5.308129 -1.633274 1.361059
			CHANNELS 3 Xrotation Zrotation Yrotation
		JOINT rShin
		{
			OFFSET 2.041588 -20.007561 0.000000
				CHANNELS 3 Xrotation Zrotation Yrotation
			JOINT rFoot
			{
				OFFSET 0.000000 -19.190928 -1.224953
					CHANNELS 3 Xrotation Yrotation Zrotation
				End Site
				{
					OFFSET 0.000000 0.000000 -1.#QNAN0
				}
			}
		}
	}
}
MOTION
Frames: 21
Frame Time: 0.032624
0.168825 5.604065 -0.305547 93.81 -5.29 -2.66 3.13 -0.28 -0.28 4.87 0.05 -0.30 -9.11 -1.90 0.00 4.68 -0.84 -0.43 -10.64 27.75 7.30 -43.82 -2.10 24.81 -12.41 -32.98 -1.42 -14.52 -15.48 27.15 10.88 -12.28 5.11 17.50 5.45 30.01 11.21 28.32 10.44 -6.34 -6.48 -22.59 -23.08 29.85 -5.67 23.96 -3.75 -1.61 36.47 50.70 -18.05 -26.99 -14.00 2.08 33.61 4.52 1.81 28.76 -37.88 13.78 
0.168825 5.639674 -0.305547 93.81 -5.29 -2.66 2.35 -0.21 -0.21 3.65 0.04 -0.22 -14.46 -1.74 0.19 2.06 -0.72 -0.37 -6.83 26.52 5.98 -44.27 -6.23 22.34 -12.04 -32.90 -6.74 -3.64 -14.90 6.76 7.66 -11.51 4.25 17.61 5.19 29.46 15.94 30.49 10.44 -9.68 -15.27 -25.21 -18.90 28.82 -3.82 25.05 -3.78 -1.72 23.38 38.74 -11.99 -22.96 -14.26 1.57 40.13 4.63 2.59 18.37 -28.90 10.28 
0.168825 5.675283 -0.305547 93.81 -5.29 -2.66 1.57 -0.14 -0.14 2.43 0.02 -0.15 -19.81 -1.58 0.37 -0.56 -0.60 -0.31 -3.10 25.21 4.77 -44.53 -10.38 19.89 -11.67 -32.85 -12.05 6.25 -10.74 -12.98 4.45 -10.68 3.43 17.73 4.93 28.91 20.78 32.65 10.22 -12.78 -24.19 -27.41 -14.71 27.71 -1.97 26.08 -3.82 -1.81 13.94 25.85 -9.43 -17.06 -14.39 0.73 43.32 4.66 2.97 10.09 -19.75 7.37 
0.168825 5.710894 -0.305547 93.81 -5.29 -2.66 0.78 -0.07 -0.07 1.21 0.01 -0.07 -25.16 -1.42 0.55 -3.19 -0.48 -0.25 0.55 23.84 3.67 -44.62 -14.53 17.41 -11.30 -32.84 -17.37 14.07 -3.64 -31.49 1.28 -9.82 2.67 17.85 4.67 28.36 25.76 34.80 9.79 -15.74 -33.22 -29.24 -10.55 26.68 -0.14 27.19 -3.86 -1.91 2.28 13.65 -4.68 -12.95 -14.65 0.23 49.54 4.74 3.70 0.12 -10.77 4.03 
0.168825 5.746503 -0.305547 93.81 -5.29 -2.66 0.00 0.00 -0.00 0.00 0.00 -0.00 -30.51 -1.26 0.73 -5.81 -0.36 -0.19 4.15 22.41 2.67 -44.52 -18.69 14.88 -10.92 -32.84 -22.68 19.27 5.50 -48.94 -1.88 -8.91 1.96 17.97 4.42 27.80 30.89 36.90 9.10 -18.70 -42.31 -30.68 -6.34 25.57 1.69 28.20 -3.93 -2.00 -8.55 1.02 -0.82 -7.13 -14.78 -0.58 53.04 4.83 4.11 -8.57 -1.63 0.96 
0.168825 5.782112 -0.305547 93.49 -5.26 -0.46 0.15 0.15 0.69 -0.45 0.19 -0.02 -32.87 -1.18 0.68 -7.00 -0.30 0.20 7.67 20.92 1.79 -44.23 -22.83 12.28 -10.55 -32.89 -28.00 21.56 15.76 -66.05 -5.02 -7.96 1.30 18.09 4.17 27.25 36.20 38.94 8.16 -21.84 -51.45 -31.62 -12.14 27.21 3.11 39.37 -3.64 -2.65 -18.73 -3.06 1.38 -4.32 -13.94 -1.21 54.01 4.79 3.57 -13.14 0.53 0.54 
0.168826 5.817721 -0.305547 92.71 -5.20 5.04 1.40 0.46 2.33 -0.22 0.69 -0.14 -32.65 -1.16 0.19 -6.99 -0.29 0.81 11.15 19.38 1.01 -43.84 -28.14 10.23 -22.14 -33.22 -21.67 24.64 4.77 -64.71 -8.14 -6.99 0.70 18.22 3.91 26.70 41.71 40.91 6.94 -25.53 -60.61 -31.81 -30.25 33.30 4.39 61.41 -2.52 -3.59 -28.76 -0.84 2.41 -5.21 -12.04 -1.65 54.69 4.57 2.01 -15.78 -4.60 2.45 
0.168826 6.261207 -0.305547 91.71 -5.11 12.23 3.18 0.84 4.41 0.39 1.32 -0.32 -30.97 -1.17 -0.79 -6.31 -0.31 0.92 14.56 17.81 0.34 -43.20 -33.43 8.01 -33.74 -34.61 -15.48 27.47 -6.27 -63.94 -11.24 -5.97 0.15 18.35 3.66 26.15 47.44 42.77 5.44 -30.67 -69.76 -30.38 -52.99 40.81 5.14 80.37 -1.56 -3.94 -31.03 1.38 4.62 -7.71 -10.49 -2.04 54.34 4.30 -0.19 -16.19 -13.34 5.51 
0.168826 6.704692 -0.305547 90.75 -5.03 19.48 4.93 1.21 6.43 1.05 1.93 -0.47 -28.95 -1.19 -2.34 -5.51 -0.34 -0.18 17.93 16.19 -0.23 -42.26 -38.69 5.57 -45.36 -37.01 -9.63 30.26 -17.34 -63.72 -14.34 -4.94 -0.34 18.47 3.41 25.60 53.42 44.51 3.64 -41.01 -78.75 -23.64 -75.48 44.86 4.19 93.73 -1.32 -3.99 -28.21 1.77 10.57 -10.29 -9.60 -2.33 54.21 3.97 -2.37 -15.90 -22.41 8.41 
0.168826 7.148178 -0.305547 89.97 -4.95 25.45 6.27 1.50 7.99 1.51 2.41 -0.56 -27.49 -1.19 -4.42 -5.01 -0.35 -2.91 21.36 15.47 -0.14 -44.75 -51.23 -0.10 -34.61 -32.26 -4.85 41.65 -16.76 -66.35 -13.11 -4.23 -0.24 18.17 -3.78 25.14 87.93 43.90 -12.54 -179.46 -56.69 78.15 -93.90 43.96 0.22 102.56 -1.69 -3.81 -25.97 -2.00 15.98 -12.15 -9.18 -2.45 55.63 3.70 -4.04 -16.70 -29.16 10.25 
0.168826 7.591665 -0.305547 89.23 -4.89 29.99 7.52 1.70 9.11 1.82 2.84 -0.63 -26.64 -1.18 -6.62 -4.83 -0.34 -6.53 24.87 14.58 -0.26 -49.92 -63.29 0.38 -26.37 -27.18 -2.03 59.02 -18.09 -68.64 -12.39 -4.15 -0.23 25.69 -5.78 24.69 113.77 36.58 -21.59 176.71 -12.18 44.03 -108.55 40.99 -4.57 109.15 -2.08 -3.61 -26.29 -10.40 17.29 -13.12 -8.88 -2.44 57.70 3.44 -5.57 -18.04 -33.55 11.45 
0.168826 8.035151 -0.305547 88.24 -4.81 33.25 9.21 1.81 9.94 2.12 3.35 -0.71 -26.22 -1.15 -8.43 -4.90 -0.33 -9.96 28.03 13.37 -0.51 -48.43 -70.49 -2.50 -31.19 -30.57 -6.17 79.80 -20.69 -63.74 -12.01 -4.52 -0.25 40.29 -1.91 22.70 123.11 31.22 -20.70 -179.66 23.81 15.02 -119.36 38.05 -7.75 114.93 -2.19 -3.58 -31.51 -19.42 12.92 -12.90 -8.90 -2.49 59.01 3.23 -7.59 -18.49 -35.65 13.00 
0.168826 8.478637 -0.305547 86.75 -4.71 35.35 11.86 1.85 10.59 2.53 4.06 -0.87 -26.07 -1.12 -9.35 -5.15 -0.32 -12.17 30.43 11.68 -0.85 -36.12 -73.61 -14.90 -52.50 -40.60 -21.39 98.16 -28.19 -48.45 -11.83 -5.19 -0.24 48.57 -1.26 20.46 124.73 28.28 -16.18 -173.06 36.78 5.29 -125.46 37.38 -5.74 120.60 -1.63 -3.86 -41.73 -24.43 4.25 -11.39 -8.74 -2.62 58.12 3.06 -10.70 -16.96 -36.09 15.07 
0.168826 9.355491 -0.305547 84.60 -4.57 36.34 15.73 1.82 11.12 3.17 5.02 -1.12 -25.95 -1.08 -9.02 -5.44 -0.31 -12.41 31.79 9.48 -1.21 -3.61 -81.61 -44.42 -78.64 -46.01 -42.76 111.75 -32.88 -26.85 -11.69 -5.97 -0.16 46.94 -3.06 19.49 125.05 24.92 -10.32 -168.32 32.62 10.22 -125.16 33.46 -1.09 126.17 -0.74 -4.39 -55.18 -16.35 -7.91 -8.45 -9.22 -2.97 54.29 2.95 -15.28 -12.48 -34.55 18.25 
0.168825 10.232347 -0.305547 81.95 -4.40 35.89 20.03 1.72 11.31 4.02 6.01 -1.30 -25.42 -1.04 -7.78 -5.38 -0.30 -11.21 32.41 7.14 -1.51 130.81 -80.59 -177.82 -85.21 -46.32 -50.88 120.49 -36.81 -9.44 -11.56 -6.64 -0.04 44.04 -1.18 19.64 123.82 20.83 -3.70 -163.59 27.04 17.00 -119.32 32.17 8.28 129.47 0.16 -4.86 -66.85 -9.22 -15.47 -5.81 -10.26 -3.40 49.52 2.91 -20.88 -6.21 -32.14 20.72 
0.168825 11.109201 -0.305547 79.06 -4.19 33.58 23.72 1.56 10.86 5.04 6.72 -1.25 -23.98 -0.99 -6.11 -4.56 -0.28 -9.41 32.69 5.16 -1.69 166.36 -71.89 145.28 -73.39 -43.30 -44.45 122.27 -45.17 -6.82 -11.40 -6.94 0.06 39.82 5.70 19.50 119.90 17.14 2.45 -158.93 20.27 25.41 -112.86 33.23 15.62 129.18 0.68 -5.04 -72.09 -8.49 -16.49 -6.58 -12.06 -3.63 48.63 2.92 -26.57 -0.18 -30.32 21.47 
0.201823 12.038658 -0.523859 76.15 -3.95 29.21 26.25 1.34 9.59 6.20 6.90 -0.85 -21.29 -0.93 -4.42 -2.65 -0.26 -7.73 32.98 3.92 -1.70 164.14 -69.41 149.93 -62.43 -38.16 -35.58 118.10 -41.62 -3.96 -11.15 -6.70 0.12 34.95 17.97 18.21 109.12 13.57 3.87 -154.53 12.55 33.52 -110.06 34.76 16.45 126.94 0.61 -4.76 -71.52 -8.97 -13.18 -13.35 -14.60 -3.21 55.13 2.97 -31.66 4.27 -29.83 20.46 
0.234821 12.968115 -0.742171 73.33 -3.69 23.40 28.93 1.06 7.72 7.42 6.62 -0.30 -17.63 -0.87 -2.86 0.24 -0.25 -6.27 33.26 3.31 -1.58 142.84 -72.60 157.92 -57.44 -50.63 -34.77 123.75 -44.47 -4.90 -10.55 -6.05 0.13 30.83 32.09 15.60 98.56 9.81 4.56 -150.22 4.76 37.69 -109.61 34.04 12.07 124.47 0.06 -4.11 -70.39 -4.45 -10.79 -24.45 -16.75 -2.00 65.71 2.95 -36.36 6.71 -29.91 17.77 
0.267818 13.897572 -0.960484 70.66 -3.44 17.03 33.56 0.69 5.59 8.63 6.01 0.11 -13.46 -0.81 -1.50 3.91 -0.23 -5.01 33.46 3.12 -1.39 116.70 -74.47 170.86 -50.07 -62.97 -31.29 129.78 -47.24 -6.30 -9.31 -5.15 0.10 25.71 45.30 10.59 88.14 5.98 4.56 -145.82 -0.78 38.45 -109.92 32.02 5.24 122.25 -0.67 -3.32 -68.90 2.80 -8.89 -37.21 -17.60 -0.72 76.29 2.92 -40.95 6.37 -29.31 13.48 
0.300816 14.827029 -1.178796 68.19 -3.23 10.93 40.78 0.23 3.53 9.79 5.16 0.08 -9.24 -0.75 -0.38 8.14 -0.21 -3.92 33.54 3.14 -1.17 88.15 -74.44 -173.76 -34.36 -74.73 -19.25 136.23 -49.89 -8.22 -7.15 -4.21 0.07 14.62 54.73 -0.94 77.78 2.23 3.85 -141.24 -2.06 39.37 -110.33 29.24 -2.17 120.81 -1.36 -2.59 -67.17 11.10 -7.28 -49.97 -17.04 0.27 86.28 2.84 -45.30 2.74 -26.24 9.81 
0.333814 15.756485 -1.397109 66.01 -3.06 5.99 46.53 -0.30 1.78 11.09 3.99 -0.73 -5.41 -0.71 0.41 12.71 -0.20 -2.99 33.83 3.29 -0.96 62.12 -72.52 -160.93 23.99 -82.29 35.51 143.19 -52.36 -10.72 -3.76 -3.39 0.03 1.71 58.93 -15.18 67.37 -1.34 2.48 -135.92 -1.49 40.20 -111.25 26.20 -8.70 120.51 -1.87 -2.11 -65.08 18.63 -5.82 -62.46 -15.69 1.91 96.96 2.57 -48.82 -3.36 -18.41 10.34 
